<svg xmlns="http://www.w3.org/2000/svg" xmlns:xlink="http://www.w3.org/1999/xlink" version="1.1" style="shape-rendering:geometricPrecision; text-rendering:geometricPrecision; image-rendering:optimizeQuality; fill-rule:evenodd; clip-rule:evenodd" viewBox="-0.5 -0.5 225 225">
<g><path style="opacity:1" fill="#fefefe" d="M -0.5,-0.5 C 74.5,-0.5 149.5,-0.5 224.5,-0.5C 224.5,74.5 224.5,149.5 224.5,224.5C 149.5,224.5 74.5,224.5 -0.5,224.5C -0.5,149.5 -0.5,74.5 -0.5,-0.5 Z"/></g>
<g><path style="opacity:1" fill="#ddce9a" d="M 113.5,9.5 C 113.56,8.95691 113.893,8.62358 114.5,8.5C 117.363,11.1609 118.03,14.1609 116.5,17.5C 116.851,14.9588 116.518,13.2921 115.5,12.5C 114.761,12.631 114.094,12.4643 113.5,12C 114.774,11.0228 114.774,10.1894 113.5,9.5 Z"/></g>
<g><path style="opacity:1" fill="#e6ab1f" d="M 113.5,9.5 C 114.774,10.1894 114.774,11.0228 113.5,12C 114.094,12.4643 114.761,12.631 115.5,12.5C 115.5,13.5 115.5,14.5 115.5,15.5C 113.678,15.8308 112.011,16.4975 110.5,17.5C 110.179,15.9519 109.179,15.2852 107.5,15.5C 107.5,14.5 107.5,13.5 107.5,12.5C 109.784,11.9708 111.784,10.9708 113.5,9.5 Z"/></g>
<g><path style="opacity:1" fill="#987017" d="M 116.5,17.5 C 115.209,17.2627 114.209,17.596 113.5,18.5C 112.5,18.5 111.5,18.5 110.5,18.5C 110.5,18.1667 110.5,17.8333 110.5,17.5C 112.011,16.4975 113.678,15.8308 115.5,15.5C 115.5,14.5 115.5,13.5 115.5,12.5C 116.518,13.2921 116.851,14.9588 116.5,17.5 Z"/></g>
<g><path style="opacity:1" fill="#025ae9" d="M 109.5,19.5 C 115.793,18.6362 117.459,20.8029 114.5,26C 111.802,26.815 109.468,26.315 107.5,24.5C 107.12,22.302 107.787,20.6354 109.5,19.5 Z"/></g>
<g><path style="opacity:1" fill="#405185" d="M 109.5,19.5 C 109.5,18.8333 109.833,18.5 110.5,18.5C 111.5,18.5 112.5,18.5 113.5,18.5C 117.687,19.8748 118.52,22.5415 116,26.5C 115.329,27.2524 114.496,27.5858 113.5,27.5C 112.167,27.5 110.833,27.5 109.5,27.5C 107.952,27.1788 107.285,26.1788 107.5,24.5C 109.468,26.315 111.802,26.815 114.5,26C 117.459,20.8029 115.793,18.6362 109.5,19.5 Z"/></g>
<g><path style="opacity:1" fill="#997c3a" d="M 132.5,26.5 C 133.822,26.33 134.989,26.6634 136,27.5C 136.667,31.1667 136.667,34.8333 136,38.5C 134.961,39.7101 133.794,40.7101 132.5,41.5C 133.795,38.3347 134.795,35.0014 135.5,31.5C 135.243,29.3076 134.243,27.6409 132.5,26.5 Z"/></g>
<g><path style="opacity:1" fill="#d39916" d="M 101.5,26.5 C 104.089,28.1573 106.756,28.4906 109.5,27.5C 110.833,27.5 112.167,27.5 113.5,27.5C 113.917,28.1239 114.584,28.4573 115.5,28.5C 119.523,27.4819 123.523,26.4819 127.5,25.5C 129.258,25.5916 130.924,25.925 132.5,26.5C 134.243,27.6409 135.243,29.3076 135.5,31.5C 134.795,35.0014 133.795,38.3347 132.5,41.5C 131.833,41.8333 131.167,42.1667 130.5,42.5C 129.957,42.44 129.624,42.1067 129.5,41.5C 131.39,38.3871 132.723,35.0537 133.5,31.5C 133.547,29.9623 132.88,28.9623 131.5,28.5C 126.67,28.387 122.003,29.2203 117.5,31C 115.923,33.5954 114.923,36.4287 114.5,39.5C 112.914,38.5868 111.414,38.5868 110,39.5C 109.507,36.3253 108.34,33.6586 106.5,31.5C 101.683,29.7135 96.6826,28.7135 91.5,28.5C 90.886,33.0689 91.886,37.0689 94.5,40.5C 94.189,41.4778 93.5223,42.1445 92.5,42.5C 88.9857,38.0649 87.819,33.0649 89,27.5C 93.0494,25.3886 97.2161,25.0553 101.5,26.5 Z"/></g>
<g><path style="opacity:1" fill="#e4e1df" d="M 101.5,26.5 C 97.2161,25.0553 93.0494,25.3886 89,27.5C 87.819,33.0649 88.9857,38.0649 92.5,42.5C 93.5223,42.1445 94.189,41.4778 94.5,40.5C 95.8175,40.179 97.1508,39.8457 98.5,39.5C 101.157,41.0022 103.823,42.1689 106.5,43C 107.637,39.2158 107.637,35.3825 106.5,31.5C 108.34,33.6586 109.507,36.3253 110,39.5C 111.414,38.5868 112.914,38.5868 114.5,39.5C 114.685,41.1958 115.519,42.5291 117,43.5C 120.269,40.0973 124.102,38.9306 128.5,40C 130.823,36.5271 131.823,32.6938 131.5,28.5C 132.88,28.9623 133.547,29.9623 133.5,31.5C 132.723,35.0537 131.39,38.3871 129.5,41.5C 129.624,42.1067 129.957,42.44 130.5,42.5C 131.313,43.6527 132.313,43.6527 133.5,42.5C 135.298,47.1127 134.298,50.946 130.5,54C 131.801,55.6155 131.801,57.1155 130.5,58.5C 130.715,56.8212 130.048,55.8212 128.5,55.5C 116.674,54.6693 104.674,54.1693 92.5,54C 91.6919,53.6924 91.0253,53.1924 90.5,52.5C 88.7427,45.7201 87.076,38.8868 85.5,32C 85.2155,27.3154 87.2155,24.1487 91.5,22.5C 94.5385,22.5257 97.5385,22.5257 100.5,22.5C 106.25,23.8894 106.584,25.2228 101.5,26.5 Z"/></g>
<g><path style="opacity:1" fill="#e82136" d="M 131.5,28.5 C 131.823,32.6938 130.823,36.5271 128.5,40C 124.102,38.9306 120.269,40.0973 117,43.5C 115.519,42.5291 114.685,41.1958 114.5,39.5C 114.923,36.4287 115.923,33.5954 117.5,31C 122.003,29.2203 126.67,28.387 131.5,28.5 Z"/></g>
<g><path style="opacity:1" fill="#e92036" d="M 106.5,31.5 C 107.637,35.3825 107.637,39.2158 106.5,43C 103.823,42.1689 101.157,41.0022 98.5,39.5C 97.1508,39.8457 95.8175,40.179 94.5,40.5C 91.886,37.0689 90.886,33.0689 91.5,28.5C 96.6826,28.7135 101.683,29.7135 106.5,31.5 Z"/></g>
<g><path style="opacity:1" fill="#bf0527" d="M 128.5,56.5 C 117.549,58.4777 106.216,59.1444 94.5,58.5C 105.451,56.5223 116.784,55.8556 128.5,56.5 Z"/></g>
<g><path style="opacity:1" fill="#691519" d="M 128.5,55.5 C 130.048,55.8212 130.715,56.8212 130.5,58.5C 117.929,59.8213 105.929,59.8213 94.5,58.5C 106.216,59.1444 117.549,58.4777 128.5,56.5C 128.5,56.1667 128.5,55.8333 128.5,55.5 Z"/></g>
<g><path style="opacity:1" fill="#866926" d="M 167.5,128.5 C 167.167,128.5 166.833,128.5 166.5,128.5C 166.167,128.5 165.833,128.5 165.5,128.5C 154.833,128.5 144.167,128.5 133.5,128.5C 133.5,128.167 133.5,127.833 133.5,127.5C 144.5,127.5 155.5,127.5 166.5,127.5C 166.831,105.327 166.497,83.327 165.5,61.5C 165.783,60.7109 166.283,60.0442 167,59.5C 167.5,82.4976 167.667,105.498 167.5,128.5 Z"/></g>
<g><path style="opacity:1" fill="#b9c2cf" d="M 111.5,61.5 C 111.5,75.1667 111.5,88.8333 111.5,102.5C 107.833,102.5 104.167,102.5 100.5,102.5C 101.432,99.7334 102.599,97.0667 104,94.5C 104.083,90.7228 104.25,87.0562 104.5,83.5C 105.198,80.1027 105.865,76.6027 106.5,73C 104.432,72.3131 102.432,72.4798 100.5,73.5C 99.377,71.711 98.0436,71.3776 96.5,72.5C 95.8723,75.7797 95.539,79.113 95.5,82.5C 95.7103,88.5854 96.2103,94.5854 97,100.5C 96.6667,100.833 96.3333,101.167 96,101.5C 93.3163,99.5348 91.1496,97.2015 89.5,94.5C 90.1834,92.8235 91.5168,92.1568 93.5,92.5C 94.2298,85.2109 94.0631,77.8776 93,70.5C 92.7216,69.5842 92.2216,68.9175 91.5,68.5C 90.8333,68.5 90.5,68.1667 90.5,67.5C 87.8845,62.2008 85.2179,62.2008 82.5,67.5C 81.8011,69.9948 80.8011,72.3281 79.5,74.5C 77.2537,74.0639 75.0871,73.3972 73,72.5C 72.8374,74.3867 73.6707,75.8867 75.5,77C 77.0762,77.4396 78.4096,78.273 79.5,79.5C 80.1067,79.3764 80.44,79.0431 80.5,78.5C 81.5,78.5 82.5,78.5 83.5,78.5C 83.5,79.5 83.5,80.5 83.5,81.5C 80.7508,81.2739 78.0841,81.6072 75.5,82.5C 73.2838,80.2971 71.9505,77.6304 71.5,74.5C 70.6721,73.5853 69.6721,72.9186 68.5,72.5C 68.3633,75.5527 68.3633,78.886 68.5,82.5C 66.6453,82.272 65.8119,82.9387 66,84.5C 67.5707,86.9229 69.7374,88.2562 72.5,88.5C 72.5792,89.9305 72.2458,91.2638 71.5,92.5C 72.8595,93.6653 73.8595,93.332 74.5,91.5C 75.4335,93.4845 74.6001,94.8179 72,95.5C 70.2691,94.259 68.4358,93.259 66.5,92.5C 65.1266,92.3433 63.7932,92.51 62.5,93C 64.4049,94.8153 66.0716,96.8153 67.5,99C 68.448,99.4828 69.448,99.6495 70.5,99.5C 70.5,100.833 71.1667,101.5 72.5,101.5C 70.6674,106.608 70.0008,111.942 70.5,117.5C 68.1432,117.337 65.8098,117.503 63.5,118C 61.5339,119.347 61.2006,120.847 62.5,122.5C 66.8333,123.833 71.1667,123.833 75.5,122.5C 76.7079,121.766 78.0413,121.433 79.5,121.5C 79.3347,117.818 79.5014,114.152 80,110.5C 81.1096,108.963 82.6096,108.297 84.5,108.5C 85.6005,110.277 86.4338,112.277 87,114.5C 87.6708,115.252 88.5041,115.586 89.5,115.5C 89.1489,117.869 88.9822,120.203 89,122.5C 89.5354,120.729 90.3687,120.396 91.5,121.5C 89.9137,123.173 89.2471,125.173 89.5,127.5C 78.8333,127.5 68.1667,127.5 57.5,127.5C 57.5,105.5 57.5,83.5 57.5,61.5C 75.5,61.5 93.5,61.5 111.5,61.5 Z"/></g>
<g><path style="opacity:1" fill="#ebab0e" d="M 111.5,61.5 C 129.5,61.5 147.5,61.5 165.5,61.5C 166.497,83.327 166.831,105.327 166.5,127.5C 155.5,127.5 144.5,127.5 133.5,127.5C 133.5,125.5 133.5,123.5 133.5,121.5C 134.321,118.359 134.821,115.025 135,111.5C 135.918,109.624 137.418,108.624 139.5,108.5C 140.024,110.306 140.691,111.972 141.5,113.5C 141.611,114.117 141.944,114.617 142.5,115C 145.482,115.498 148.482,115.665 151.5,115.5C 149.695,117.197 147.361,118.03 144.5,118C 142.447,119.678 142.113,121.511 143.5,123.5C 149.401,123.948 155.068,123.281 160.5,121.5C 160.802,118.941 160.468,116.607 159.5,114.5C 159.047,113.542 158.381,112.708 157.5,112C 155.618,111.802 153.952,111.302 152.5,110.5C 151.527,108.932 151.36,107.265 152,105.5C 157.019,100.29 158.852,94.2901 157.5,87.5C 156.432,86.5655 155.099,86.2322 153.5,86.5C 155.102,84.3011 156.936,82.3011 159,80.5C 159.796,77.9615 159.629,75.6282 158.5,73.5C 157.365,71.7868 155.698,71.1201 153.5,71.5C 151.167,71.5 148.833,71.5 146.5,71.5C 146.926,69.8612 146.926,68.5279 146.5,67.5C 141.982,65.6167 137.982,66.45 134.5,70C 131.69,70.7823 129.023,71.6156 126.5,72.5C 126.5,73.1667 126.5,73.8333 126.5,74.5C 124.95,73.5592 123.284,72.8925 121.5,72.5C 120.521,75.6248 120.187,78.9581 120.5,82.5C 119.475,82.8966 119.308,83.5632 120,84.5C 123.493,86.484 125.993,89.1507 127.5,92.5C 127.265,93.0967 126.765,93.4301 126,93.5C 124.333,92.5 122.667,91.5 121,90.5C 119.541,90.8082 118.374,91.4749 117.5,92.5C 118.412,94.5952 119.579,96.5952 121,98.5C 122.011,99.3366 123.178,99.67 124.5,99.5C 123.34,101.203 124.007,101.869 126.5,101.5C 121.695,102.487 116.695,102.821 111.5,102.5C 111.5,88.8333 111.5,75.1667 111.5,61.5 Z"/></g>
<g><path style="opacity:1" fill="#cf8a21" d="M 90.5,67.5 C 87.8333,66.1667 85.1667,66.1667 82.5,67.5C 85.2179,62.2008 87.8845,62.2008 90.5,67.5 Z"/></g>
<g><path style="opacity:1" fill="#393737" d="M 144.5,68.5 C 145.059,70.6792 145.726,72.8458 146.5,75C 146.228,80.1489 146.228,85.3155 146.5,90.5C 145.167,90.5 143.833,90.5 142.5,90.5C 142.34,92.1992 142.506,93.8659 143,95.5C 143.417,96.756 144.25,97.4226 145.5,97.5C 147.103,98.5964 148.603,99.9297 150,101.5C 150.333,101.167 150.667,100.833 151,100.5C 149.84,91.6208 149.34,82.6208 149.5,73.5C 150.833,73.5 152.167,73.5 153.5,73.5C 154.833,73.5 156.167,73.5 157.5,73.5C 158.341,75.3792 158.675,77.3792 158.5,79.5C 157.5,79.5 156.5,79.5 155.5,79.5C 155.723,82.1142 154.556,83.7809 152,84.5C 151.26,85.7494 151.427,86.7494 152.5,87.5C 154.167,88.8333 155.833,88.8333 157.5,87.5C 158.852,94.2901 157.019,100.29 152,105.5C 151.36,107.265 151.527,108.932 152.5,110.5C 151.115,111.302 151.282,111.969 153,112.5C 155.154,113.274 157.321,113.941 159.5,114.5C 160.468,116.607 160.802,118.941 160.5,121.5C 155.068,123.281 149.401,123.948 143.5,123.5C 143.5,122.833 143.833,122.5 144.5,122.5C 156.5,121.833 156.5,121.167 144.5,120.5C 147.023,119.746 149.689,119.08 152.5,118.5C 153.833,117.167 153.833,115.833 152.5,114.5C 151.893,114.624 151.56,114.957 151.5,115.5C 148.482,115.665 145.482,115.498 142.5,115C 141.944,114.617 141.611,114.117 141.5,113.5C 142.043,113.44 142.376,113.107 142.5,112.5C 141.846,110.885 141.346,109.218 141,107.5C 140.617,108.056 140.117,108.389 139.5,108.5C 137.418,108.624 135.918,109.624 135,111.5C 134.821,115.025 134.321,118.359 133.5,121.5C 132.673,116.015 132.173,110.348 132,104.5C 130.698,103.915 129.531,103.249 128.5,102.5C 131.787,101.839 135.12,101.339 138.5,101C 136.385,100.443 134.385,99.6094 132.5,98.5C 130.68,99.8829 128.68,100.883 126.5,101.5C 124.007,101.869 123.34,101.203 124.5,99.5C 125.043,99.44 125.376,99.1067 125.5,98.5C 124.147,97.4763 123.48,96.143 123.5,94.5C 126.163,96.0572 128.163,95.3905 129.5,92.5C 129.03,91.537 128.363,91.537 127.5,92.5C 125.993,89.1507 123.493,86.484 120,84.5C 119.308,83.5632 119.475,82.8966 120.5,82.5C 121.675,82.719 122.675,82.3857 123.5,81.5C 123.5,79.5 123.5,77.5 123.5,75.5C 122.807,74.4822 122.141,73.4822 121.5,72.5C 123.284,72.8925 124.95,73.5592 126.5,74.5C 126.025,77.0821 126.692,79.0821 128.5,80.5C 128.369,81.3764 128.702,82.0431 129.5,82.5C 132.084,81.6072 134.751,81.2739 137.5,81.5C 137.5,80.5 137.5,79.5 137.5,78.5C 135.784,78.6287 134.117,78.962 132.5,79.5C 132.5,78.8333 132.5,78.1667 132.5,77.5C 132.557,76.391 132.89,75.391 133.5,74.5C 133.5,73.5 133.5,72.5 133.5,71.5C 135.359,71.5391 136.692,70.7058 137.5,69C 139.81,68.5034 142.143,68.3367 144.5,68.5 Z"/></g>
<g><path style="opacity:1" fill="#e11a35" d="M 90.5,67.5 C 90.5,68.1667 90.8333,68.5 91.5,68.5C 92.3021,75.8042 92.6354,83.1375 92.5,90.5C 91.1667,90.5 89.8333,90.5 88.5,90.5C 88.2322,92.099 88.5655,93.4324 89.5,94.5C 91.1496,97.2015 93.3163,99.5348 96,101.5C 96.3333,101.167 96.6667,100.833 97,100.5C 96.2103,94.5854 95.7103,88.5854 95.5,82.5C 95.539,79.113 95.8723,75.7797 96.5,72.5C 98.0436,71.3776 99.377,71.711 100.5,73.5C 102.432,72.4798 104.432,72.3131 106.5,73C 105.865,76.6027 105.198,80.1027 104.5,83.5C 103.092,89.7421 101.425,96.0754 99.5,102.5C 97.1799,104.226 94.5133,104.893 91.5,104.5C 91.665,107.85 91.4983,111.183 91,114.5C 90.6174,115.056 90.1174,115.389 89.5,115.5C 88.5041,115.586 87.6708,115.252 87,114.5C 86.4338,112.277 85.6005,110.277 84.5,108.5C 82.5112,107.113 80.6779,107.447 79,109.5C 78.6667,112.833 78.3333,116.167 78,119.5C 76.583,120.078 75.7496,121.078 75.5,122.5C 71.1667,123.833 66.8333,123.833 62.5,122.5C 62.8333,122.5 63.1667,122.5 63.5,122.5C 75.3032,122.3 75.3032,121.633 63.5,120.5C 66.4525,119.996 69.2858,118.996 72,117.5C 72.1948,112.582 72.6948,107.749 73.5,103C 76.7111,101.847 80.0445,101.18 83.5,101C 81.8333,100.167 80.1667,99.3333 78.5,98.5C 76.6802,99.8829 74.6802,100.883 72.5,101.5C 71.1667,101.5 70.5,100.833 70.5,99.5C 71.0431,99.44 71.3764,99.1067 71.5,98.5C 69.4333,96.7726 67.7666,94.7726 66.5,92.5C 68.4358,93.259 70.2691,94.259 72,95.5C 74.6001,94.8179 75.4335,93.4845 74.5,91.5C 73.8347,88.5491 72.0014,86.5491 69,85.5C 68.5172,84.552 68.3505,83.552 68.5,82.5C 68.3633,78.886 68.3633,75.5527 68.5,72.5C 69.6721,72.9186 70.6721,73.5853 71.5,74.5C 71.9505,77.6304 73.2838,80.2971 75.5,82.5C 78.0841,81.6072 80.7508,81.2739 83.5,81.5C 83.5,80.5 83.5,79.5 83.5,78.5C 82.5,78.5 81.5,78.5 80.5,78.5C 79.9569,78.44 79.6236,78.1067 79.5,77.5C 83.3354,76.0035 83.3354,75.0035 79.5,74.5C 80.8011,72.3281 81.8011,69.9948 82.5,67.5C 85.1667,66.1667 87.8333,66.1667 90.5,67.5 Z"/></g>
<g><path style="opacity:1" fill="#f2e0cc" d="M 146.5,67.5 C 145.833,67.8333 145.167,68.1667 144.5,68.5C 142.143,68.3367 139.81,68.5034 137.5,69C 136.692,70.7058 135.359,71.5391 133.5,71.5C 133.5,72.5 133.5,73.5 133.5,74.5C 131.167,73.8333 128.833,73.1667 126.5,72.5C 129.023,71.6156 131.69,70.7823 134.5,70C 137.982,66.45 141.982,65.6167 146.5,67.5 Z"/></g>
<g><path style="opacity:1" fill="#c7c9c0" d="M 153.5,71.5 C 155.698,71.1201 157.365,71.7868 158.5,73.5C 158.167,73.5 157.833,73.5 157.5,73.5C 156.167,73.5 154.833,73.5 153.5,73.5C 153.5,72.8333 153.5,72.1667 153.5,71.5 Z"/></g>
<g><path style="opacity:1" fill="#1b1814" d="M 146.5,67.5 C 146.926,68.5279 146.926,69.8612 146.5,71.5C 148.833,71.5 151.167,71.5 153.5,71.5C 153.5,72.1667 153.5,72.8333 153.5,73.5C 152.167,73.5 150.833,73.5 149.5,73.5C 148.883,73.3893 148.383,73.056 148,72.5C 147.833,73.8333 147.667,75.1667 147.5,76.5C 148.441,81.8152 148.441,87.1485 147.5,92.5C 146.5,92.5 145.5,92.5 144.5,92.5C 144.433,93.9587 144.766,95.2921 145.5,96.5C 145.5,96.8333 145.5,97.1667 145.5,97.5C 144.25,97.4226 143.417,96.756 143,95.5C 142.506,93.8659 142.34,92.1992 142.5,90.5C 143.833,90.5 145.167,90.5 146.5,90.5C 146.228,85.3155 146.228,80.1489 146.5,75C 145.726,72.8458 145.059,70.6792 144.5,68.5C 145.167,68.1667 145.833,67.8333 146.5,67.5 Z"/></g>
<g><path style="opacity:1" fill="#b22228" d="M 126.5,72.5 C 128.833,73.1667 131.167,73.8333 133.5,74.5C 132.89,75.391 132.557,76.391 132.5,77.5C 130.053,77.385 128.053,76.385 126.5,74.5C 126.5,73.8333 126.5,73.1667 126.5,72.5 Z"/></g>
<g><path style="opacity:1" fill="#911521" d="M 79.5,74.5 C 83.3354,75.0035 83.3354,76.0035 79.5,77.5C 79.6236,78.1067 79.9569,78.44 80.5,78.5C 80.44,79.0431 80.1067,79.3764 79.5,79.5C 78.4096,78.273 77.0762,77.4396 75.5,77C 73.6707,75.8867 72.8374,74.3867 73,72.5C 75.0871,73.3972 77.2537,74.0639 79.5,74.5 Z"/></g>
<g><path style="opacity:1" fill="#d3888a" d="M 121.5,72.5 C 122.141,73.4822 122.807,74.4822 123.5,75.5C 123.5,77.5 123.5,79.5 123.5,81.5C 122.675,82.3857 121.675,82.719 120.5,82.5C 120.187,78.9581 120.521,75.6248 121.5,72.5 Z"/></g>
<g><path style="opacity:1" fill="#dea41f" d="M 126.5,74.5 C 128.053,76.385 130.053,77.385 132.5,77.5C 132.5,78.1667 132.5,78.8333 132.5,79.5C 131.292,80.2341 129.959,80.5674 128.5,80.5C 126.692,79.0821 126.025,77.0821 126.5,74.5 Z"/></g>
<g><path style="opacity:1" fill="#0e0a07" d="M 157.5,73.5 C 157.833,73.5 158.167,73.5 158.5,73.5C 159.629,75.6282 159.796,77.9615 159,80.5C 156.936,82.3011 155.102,84.3011 153.5,86.5C 152.833,86.5 152.5,86.8333 152.5,87.5C 151.427,86.7494 151.26,85.7494 152,84.5C 154.556,83.7809 155.723,82.1142 155.5,79.5C 156.5,79.5 157.5,79.5 158.5,79.5C 158.675,77.3792 158.341,75.3792 157.5,73.5 Z"/></g>
<g><path style="opacity:1" fill="#eae8db" d="M 128.5,80.5 C 129.959,80.5674 131.292,80.2341 132.5,79.5C 134.117,78.962 135.784,78.6287 137.5,78.5C 137.5,79.5 137.5,80.5 137.5,81.5C 134.751,81.2739 132.084,81.6072 129.5,82.5C 128.702,82.0431 128.369,81.3764 128.5,80.5 Z"/></g>
<g><path style="opacity:1" fill="#e6aeb6" d="M 99.5,83.5 C 101.896,84.8275 101.896,86.4942 99.5,88.5C 98.9478,86.9974 98.9478,85.3307 99.5,83.5 Z"/></g>
<g><path style="opacity:1" fill="#8c3b40" d="M 68.5,82.5 C 68.3505,83.552 68.5172,84.552 69,85.5C 72.0014,86.5491 73.8347,88.5491 74.5,91.5C 73.8595,93.332 72.8595,93.6653 71.5,92.5C 72.2458,91.2638 72.5792,89.9305 72.5,88.5C 69.7374,88.2562 67.5707,86.9229 66,84.5C 65.8119,82.9387 66.6453,82.272 68.5,82.5 Z"/></g>
<g><path style="opacity:1" fill="#751214" d="M 91.5,68.5 C 92.2216,68.9175 92.7216,69.5842 93,70.5C 94.0631,77.8776 94.2298,85.2109 93.5,92.5C 91.5168,92.1568 90.1834,92.8235 89.5,94.5C 88.5655,93.4324 88.2322,92.099 88.5,90.5C 89.8333,90.5 91.1667,90.5 92.5,90.5C 92.6354,83.1375 92.3021,75.8042 91.5,68.5 Z"/></g>
<g><path style="opacity:1" fill="#ced4cf" d="M 153.5,86.5 C 155.099,86.2322 156.432,86.5655 157.5,87.5C 155.833,88.8333 154.167,88.8333 152.5,87.5C 152.5,86.8333 152.833,86.5 153.5,86.5 Z"/></g>
<g><path style="opacity:1" fill="#941522" d="M 104.5,83.5 C 104.25,87.0562 104.083,90.7228 104,94.5C 102.599,97.0667 101.432,99.7334 100.5,102.5C 100.167,102.5 99.8333,102.5 99.5,102.5C 101.425,96.0754 103.092,89.7421 104.5,83.5 Z"/></g>
<g><path style="opacity:1" fill="#dddcd6" d="M 149.5,73.5 C 149.34,82.6208 149.84,91.6208 151,100.5C 150.667,100.833 150.333,101.167 150,101.5C 148.603,99.9297 147.103,98.5964 145.5,97.5C 145.5,97.1667 145.5,96.8333 145.5,96.5C 151.313,98.7708 151.98,97.4375 147.5,92.5C 148.441,87.1485 148.441,81.8152 147.5,76.5C 147.667,75.1667 147.833,73.8333 148,72.5C 148.383,73.056 148.883,73.3893 149.5,73.5 Z"/></g>
<g><path style="opacity:1" fill="#e5e6d6" d="M 127.5,92.5 C 128.363,91.537 129.03,91.537 129.5,92.5C 128.163,95.3905 126.163,96.0572 123.5,94.5C 122.01,92.7202 120.01,92.0535 117.5,92.5C 118.374,91.4749 119.541,90.8082 121,90.5C 122.667,91.5 124.333,92.5 126,93.5C 126.765,93.4301 127.265,93.0967 127.5,92.5 Z"/></g>
<g><path style="opacity:1" fill="#eeb026" d="M 147.5,92.5 C 151.98,97.4375 151.313,98.7708 145.5,96.5C 144.766,95.2921 144.433,93.9587 144.5,92.5C 145.5,92.5 146.5,92.5 147.5,92.5 Z"/></g>
<g><path style="opacity:1" fill="#b35d2f" d="M 66.5,92.5 C 67.7666,94.7726 69.4333,96.7726 71.5,98.5C 71.3764,99.1067 71.0431,99.44 70.5,99.5C 69.448,99.6495 68.448,99.4828 67.5,99C 66.0716,96.8153 64.4049,94.8153 62.5,93C 63.7932,92.51 65.1266,92.3433 66.5,92.5 Z"/></g>
<g><path style="opacity:1" fill="#5e3133" d="M 117.5,92.5 C 120.01,92.0535 122.01,92.7202 123.5,94.5C 123.48,96.143 124.147,97.4763 125.5,98.5C 125.376,99.1067 125.043,99.44 124.5,99.5C 123.178,99.67 122.011,99.3366 121,98.5C 119.579,96.5952 118.412,94.5952 117.5,92.5 Z"/></g>
<g><path style="opacity:1" fill="#f2d8de" d="M 63.5,120.5 C 63.5,121.167 63.5,121.833 63.5,122.5C 63.1667,122.5 62.8333,122.5 62.5,122.5C 61.2006,120.847 61.5339,119.347 63.5,118C 65.8098,117.503 68.1432,117.337 70.5,117.5C 70.0008,111.942 70.6674,106.608 72.5,101.5C 74.6802,100.883 76.6802,99.8829 78.5,98.5C 80.1667,99.3333 81.8333,100.167 83.5,101C 80.0445,101.18 76.7111,101.847 73.5,103C 72.6948,107.749 72.1948,112.582 72,117.5C 69.2858,118.996 66.4525,119.996 63.5,120.5 Z"/></g>
<g><path style="opacity:1" fill="#f5efe5" d="M 128.5,102.5 C 127.957,102.56 127.624,102.893 127.5,103.5C 128.602,104.176 129.602,104.842 130.5,105.5C 117.833,105.5 105.167,105.5 92.5,105.5C 92.1914,120.036 92.5247,134.536 93.5,149C 92.9444,150.011 92.2778,150.844 91.5,151.5C 90.1682,147.736 89.3349,143.736 89,139.5C 88.3918,137.934 87.5585,136.6 86.5,135.5C 87.5,134.833 88.5,134.167 89.5,133.5C 89.5,131.833 89.5,130.167 89.5,128.5C 78.8333,128.5 68.1667,128.5 57.5,128.5C 57.5,128.167 57.5,127.833 57.5,127.5C 68.1667,127.5 78.8333,127.5 89.5,127.5C 89.2471,125.173 89.9137,123.173 91.5,121.5C 90.3687,120.396 89.5354,120.729 89,122.5C 88.9822,120.203 89.1489,117.869 89.5,115.5C 90.1174,115.389 90.6174,115.056 91,114.5C 91.4983,111.183 91.665,107.85 91.5,104.5C 94.5133,104.893 97.1799,104.226 99.5,102.5C 99.8333,102.5 100.167,102.5 100.5,102.5C 104.167,102.5 107.833,102.5 111.5,102.5C 116.695,102.821 121.695,102.487 126.5,101.5C 128.68,100.883 130.68,99.8829 132.5,98.5C 134.385,99.6094 136.385,100.443 138.5,101C 135.12,101.339 131.787,101.839 128.5,102.5 Z"/></g>
<g><path style="opacity:1" fill="#b8c0ce" d="M 130.5,105.5 C 130.667,119.837 130.5,134.171 130,148.5C 129.5,150.333 128.333,151.5 126.5,152C 122.049,152.13 117.716,152.796 113.5,154C 111.771,155.789 111.104,157.956 111.5,160.5C 111.167,160.5 110.833,160.5 110.5,160.5C 109.4,159.395 108.733,158.062 108.5,156.5C 109.289,156.217 109.956,155.717 110.5,155C 109.328,154.581 108.328,153.915 107.5,153C 103.118,152.708 98.7847,152.208 94.5,151.5C 93.7611,151.369 93.0944,151.536 92.5,152C 93.3366,153.011 93.67,154.178 93.5,155.5C 91.8958,154.713 91.2291,153.38 91.5,151.5C 92.2778,150.844 92.9444,150.011 93.5,149C 92.5247,134.536 92.1914,120.036 92.5,105.5C 105.167,105.5 117.833,105.5 130.5,105.5 Z"/></g>
<g><path style="opacity:1" fill="#cb8329" d="M 115.5,110.5 C 114.213,111.768 113.213,111.435 112.5,109.5C 111.735,110.612 110.735,111.279 109.5,111.5C 109.484,109.516 110.484,108.516 112.5,108.5C 114.038,108.453 115.038,109.12 115.5,110.5 Z"/></g>
<g><path style="opacity:1" fill="#e7e6d3" d="M 141.5,113.5 C 140.691,111.972 140.024,110.306 139.5,108.5C 140.117,108.389 140.617,108.056 141,107.5C 141.346,109.218 141.846,110.885 142.5,112.5C 142.376,113.107 142.043,113.44 141.5,113.5 Z"/></g>
<g><path style="opacity:1" fill="#e7e5d1" d="M 152.5,110.5 C 153.952,111.302 155.618,111.802 157.5,112C 158.381,112.708 159.047,113.542 159.5,114.5C 157.321,113.941 155.154,113.274 153,112.5C 151.282,111.969 151.115,111.302 152.5,110.5 Z"/></g>
<g><path style="opacity:1" fill="#6a131b" d="M 84.5,108.5 C 82.6096,108.297 81.1096,108.963 80,110.5C 79.5014,114.152 79.3347,117.818 79.5,121.5C 78.0413,121.433 76.7079,121.766 75.5,122.5C 75.7496,121.078 76.583,120.078 78,119.5C 78.3333,116.167 78.6667,112.833 79,109.5C 80.6779,107.447 82.5112,107.113 84.5,108.5 Z"/></g>
<g><path style="opacity:1" fill="#a73e35" d="M 107.5,115.5 C 108.239,115.369 108.906,115.536 109.5,116C 108.748,116.671 108.414,117.504 108.5,118.5C 106.83,118.249 105.33,117.582 104,116.5C 103.517,117.448 103.351,118.448 103.5,119.5C 102.768,118.192 101.934,116.858 101,115.5C 100.503,118.146 100.336,120.813 100.5,123.5C 99.7109,123.217 99.0442,122.717 98.5,122C 99.2822,119.26 99.7822,116.426 100,113.5C 102.491,114.22 104.991,114.887 107.5,115.5 Z"/></g>
<g><path style="opacity:1" fill="#dbdacb" d="M 144.5,120.5 C 144.5,121.167 144.5,121.833 144.5,122.5C 143.833,122.5 143.5,122.833 143.5,123.5C 142.113,121.511 142.447,119.678 144.5,118C 147.361,118.03 149.695,117.197 151.5,115.5C 151.56,114.957 151.893,114.624 152.5,114.5C 153.833,115.833 153.833,117.167 152.5,118.5C 149.689,119.08 147.023,119.746 144.5,120.5 Z"/></g>
<g><path style="opacity:1" fill="#cc7316" d="M 63.5,120.5 C 75.3032,121.633 75.3032,122.3 63.5,122.5C 63.5,121.833 63.5,121.167 63.5,120.5 Z"/></g>
<g><path style="opacity:1" fill="#87383f" d="M 144.5,120.5 C 156.5,121.167 156.5,121.833 144.5,122.5C 144.5,121.833 144.5,121.167 144.5,120.5 Z"/></g>
<g><path style="opacity:1" fill="#0043a5" d="M 165.5,128.5 C 165.833,128.5 166.167,128.5 166.5,128.5C 166.667,146.836 166.5,165.17 166,183.5C 165.768,184.737 165.268,185.737 164.5,186.5C 165.437,167.19 165.77,147.856 165.5,128.5 Z"/></g>
<g><path style="opacity:1" fill="#011049" d="M 166.5,128.5 C 166.833,128.5 167.167,128.5 167.5,128.5C 167.667,147.17 167.5,165.836 167,184.5C 165.315,191.35 161.148,195.683 154.5,197.5C 159.219,195.114 162.552,191.447 164.5,186.5C 165.268,185.737 165.768,184.737 166,183.5C 166.5,165.17 166.667,146.836 166.5,128.5 Z"/></g>
<g><path style="opacity:1" fill="#f2e9b1" d="M 57.5,128.5 C 57.1913,147.88 57.5247,167.213 58.5,186.5C 57.8826,186.389 57.3826,186.056 57,185.5C 56.1711,166.329 56.3377,147.329 57.5,128.5 Z"/></g>
<g><path style="opacity:1" fill="#db2032" d="M 115.5,110.5 C 116.11,111.391 116.443,112.391 116.5,113.5C 116.5,117.833 116.5,122.167 116.5,126.5C 115.5,126.5 114.5,126.5 113.5,126.5C 113.263,127.791 113.596,128.791 114.5,129.5C 115.364,130.688 116.364,131.855 117.5,133C 118.449,133.617 119.282,133.451 120,132.5C 118.604,126.658 118.271,120.658 119,114.5C 121.027,114.014 123.193,114.014 125.5,114.5C 125.184,119.844 124.684,125.178 124,130.5C 121.147,133.577 119.981,137.244 120.5,141.5C 124.788,141.558 126.121,143.558 124.5,147.5C 121.579,148.407 118.579,148.74 115.5,148.5C 115.5,147.5 115.5,146.5 115.5,145.5C 117.288,145.785 118.955,145.452 120.5,144.5C 118.234,143.686 115.9,143.186 113.5,143C 112.897,141.175 112.23,139.341 111.5,137.5C 110.252,138.04 109.085,138.707 108,139.5C 107.818,142.226 107.318,144.893 106.5,147.5C 103.242,148.417 99.909,148.751 96.5,148.5C 96.5,147.5 96.5,146.5 96.5,145.5C 98.5,145.5 100.5,145.5 102.5,145.5C 102.335,142.15 102.502,138.817 103,135.5C 105.351,134.286 107.851,133.452 110.5,133C 107.953,132.34 105.453,132.507 103,133.5C 100.053,133.053 98.2201,131.387 97.5,128.5C 99.8333,128.5 102.167,128.5 104.5,128.5C 103.134,126.773 101.8,125.106 100.5,123.5C 100.336,120.813 100.503,118.146 101,115.5C 101.934,116.858 102.768,118.192 103.5,119.5C 105.693,120.797 108.027,120.797 110.5,119.5C 110.043,118.702 109.376,118.369 108.5,118.5C 108.414,117.504 108.748,116.671 109.5,116C 108.906,115.536 108.239,115.369 107.5,115.5C 107.733,113.938 108.4,112.605 109.5,111.5C 110.735,111.279 111.735,110.612 112.5,109.5C 113.213,111.435 114.213,111.768 115.5,110.5 Z"/></g>
<g><path style="opacity:1" fill="#771014" d="M 116.5,113.5 C 117.486,117.97 117.819,122.637 117.5,127.5C 115.821,127.285 114.821,127.952 114.5,129.5C 113.596,128.791 113.263,127.791 113.5,126.5C 114.5,126.5 115.5,126.5 116.5,126.5C 116.5,122.167 116.5,117.833 116.5,113.5 Z"/></g>
<g><path style="opacity:1" fill="#d6c5ce" d="M 108.5,118.5 C 109.376,118.369 110.043,118.702 110.5,119.5C 108.027,120.797 105.693,120.797 103.5,119.5C 103.351,118.448 103.517,117.448 104,116.5C 105.33,117.582 106.83,118.249 108.5,118.5 Z"/></g>
<g><path style="opacity:1" fill="#efac06" d="M 57.5,128.5 C 68.1667,128.5 78.8333,128.5 89.5,128.5C 89.5,130.167 89.5,131.833 89.5,133.5C 80.4754,133.168 71.4754,133.502 62.5,134.5C 63.5312,135.7 64.3645,137.034 65,138.5C 65.4215,142.872 66.0881,147.205 67,151.5C 67.8518,152.571 68.6851,153.571 69.5,154.5C 70.6068,156.931 72.6068,157.931 75.5,157.5C 78.5143,157.742 81.0143,156.742 83,154.5C 84.1549,150.928 84.9882,147.261 85.5,143.5C 84.7628,140.905 84.7628,138.238 85.5,135.5C 85.8333,135.5 86.1667,135.5 86.5,135.5C 87.5585,136.6 88.3918,137.934 89,139.5C 89.3349,143.736 90.1682,147.736 91.5,151.5C 91.2291,153.38 91.8958,154.713 93.5,155.5C 93.6107,156.117 93.944,156.617 94.5,157C 97.8881,157.659 101.221,157.492 104.5,156.5C 105.833,156.5 107.167,156.5 108.5,156.5C 108.733,158.062 109.4,159.395 110.5,160.5C 110.829,175.676 110.496,190.676 109.5,205.5C 108.833,205.167 108.167,204.833 107.5,204.5C 107.047,203.542 106.381,202.708 105.5,202C 102.798,200.66 100.131,199.327 97.5,198C 87.8333,197.667 78.1667,197.333 68.5,197C 65.7982,195.988 63.4649,194.488 61.5,192.5C 60.4706,190.483 59.4706,188.483 58.5,186.5C 57.5247,167.213 57.1913,147.88 57.5,128.5 Z"/></g>
<g><path style="opacity:1" fill="#cf303e" d="M 89.5,135.5 C 91.2252,135.843 91.7252,136.843 91,138.5C 89.9614,137.756 89.4614,136.756 89.5,135.5 Z"/></g>
<g><path style="opacity:1" fill="#e8e9dc" d="M 134.5,134.5 C 134.833,134.5 135.167,134.5 135.5,134.5C 135.657,135.873 135.49,137.207 135,138.5C 133.317,139.887 132.15,141.553 131.5,143.5C 131.129,139.997 132.129,136.997 134.5,134.5 Z"/></g>
<g><path style="opacity:1" fill="#eaaa11" d="M 143.5,133.5 C 145.284,141.706 145.95,150.039 145.5,158.5C 144.167,158.5 142.833,158.5 141.5,158.5C 141.259,162.019 142.593,164.685 145.5,166.5C 146.815,167.476 148.148,168.476 149.5,169.5C 150.086,169.291 150.586,168.957 151,168.5C 150.01,160.994 149.176,153.327 148.5,145.5C 148.363,143.159 149.03,141.159 150.5,139.5C 151.167,139.5 151.833,139.5 152.5,139.5C 152.783,140.289 153.283,140.956 154,141.5C 155.356,140.62 156.856,140.286 158.5,140.5C 159.244,145.702 158.077,150.369 155,154.5C 154.781,153.062 154.281,151.729 153.5,150.5C 151.717,152.023 151.051,154.023 151.5,156.5C 153.167,156.5 154.833,156.5 156.5,156.5C 156.62,158.734 156.287,160.901 155.5,163C 153.476,167.014 151.476,171.014 149.5,175C 149.307,177.008 149.974,178.508 151.5,179.5C 153.599,180.612 155.933,181.279 158.5,181.5C 158.5,183.5 158.5,185.5 158.5,187.5C 156.8,187.626 155.3,188.293 154,189.5C 150.279,188.73 146.779,188.73 143.5,189.5C 143.414,188.504 143.748,187.671 144.5,187C 147.146,186.503 149.813,186.336 152.5,186.5C 152.5,185.167 152.5,183.833 152.5,182.5C 148.5,182.5 144.5,182.5 140.5,182.5C 140.5,182.167 140.5,181.833 140.5,181.5C 140.125,179.302 139.458,177.302 138.5,175.5C 136.177,174.766 134.01,175.432 132,177.5C 131.502,180.817 131.335,184.15 131.5,187.5C 129.8,187.626 128.3,188.293 127,189.5C 123.443,188.278 119.943,188.278 116.5,189.5C 116.414,188.504 116.748,187.671 117.5,187C 119.81,186.503 122.143,186.337 124.5,186.5C 125.213,181.632 125.879,176.632 126.5,171.5C 129.963,169.938 133.63,169.105 137.5,169C 136.584,168.722 135.918,168.222 135.5,167.5C 134.594,166.035 133.261,165.035 131.5,164.5C 126.126,168.665 122.459,167.332 120.5,160.5C 122.149,161.473 123.816,162.473 125.5,163.5C 127.569,163.215 128.902,162.048 129.5,160C 128.423,159.53 127.423,159.697 126.5,160.5C 125.833,160.5 125.5,160.167 125.5,159.5C 126.808,157.362 126.475,155.362 124.5,153.5C 127.652,153.429 129.986,152.095 131.5,149.5C 137.813,149.502 138.146,148.169 132.5,145.5C 131.662,145.158 131.328,144.492 131.5,143.5C 132.15,141.553 133.317,139.887 135,138.5C 135.49,137.207 135.657,135.873 135.5,134.5C 137.995,131.546 140.661,131.213 143.5,133.5 Z"/></g>
<g><path style="opacity:1" fill="#e2eae0" d="M 160.5,139.5 C 159.833,139.833 159.167,140.167 158.5,140.5C 156.856,140.286 155.356,140.62 154,141.5C 153.283,140.956 152.783,140.289 152.5,139.5C 155.307,138.343 157.974,138.343 160.5,139.5 Z"/></g>
<g><path style="opacity:1" fill="#efdccc" d="M 89.5,133.5 C 88.5,134.167 87.5,134.833 86.5,135.5C 86.1667,135.5 85.8333,135.5 85.5,135.5C 84.1418,135.178 82.4752,135.178 80.5,135.5C 81.1989,137.995 82.1989,140.328 83.5,142.5C 82.5,142.5 81.5,142.5 80.5,142.5C 80.5,143.5 80.5,144.5 80.5,145.5C 82.1788,145.285 83.1788,145.952 83.5,147.5C 81.4362,147.762 80.1029,148.929 79.5,151C 77.8659,151.494 76.1992,151.66 74.5,151.5C 74.5,151.167 74.5,150.833 74.5,150.5C 76.9711,150.767 78.6378,149.767 79.5,147.5C 78.1667,145.167 78.1667,142.833 79.5,140.5C 79.2222,137.954 78.5556,136.287 77.5,135.5C 76.8333,135.5 76.1667,135.5 75.5,135.5C 72.1501,135.335 68.8168,135.502 65.5,136C 67.164,139.136 69.8307,140.303 73.5,139.5C 73.5,140.5 73.5,141.5 73.5,142.5C 71.5,142.5 69.5,142.5 67.5,142.5C 67.5,143.5 67.5,144.5 67.5,145.5C 69.0419,146.163 70.7086,146.83 72.5,147.5C 71.3112,148.429 69.9778,148.762 68.5,148.5C 68.2627,149.791 68.596,150.791 69.5,151.5C 69.5569,152.609 69.8902,153.609 70.5,154.5C 70.1667,154.5 69.8333,154.5 69.5,154.5C 68.6851,153.571 67.8518,152.571 67,151.5C 66.0881,147.205 65.4215,142.872 65,138.5C 64.3645,137.034 63.5312,135.7 62.5,134.5C 71.4754,133.502 80.4754,133.168 89.5,133.5 Z"/></g>
<g><path style="opacity:1" fill="#ecad1e" d="M 74.5,150.5 C 74.7713,145.297 75.7713,140.297 77.5,135.5C 78.5556,136.287 79.2222,137.954 79.5,140.5C 78.1667,142.833 78.1667,145.167 79.5,147.5C 78.6378,149.767 76.9711,150.767 74.5,150.5 Z"/></g>
<g><path style="opacity:1" fill="#e71134" d="M 75.5,135.5 C 75.2671,137.062 74.6005,138.395 73.5,139.5C 69.8307,140.303 67.164,139.136 65.5,136C 68.8168,135.502 72.1501,135.335 75.5,135.5 Z"/></g>
<g><path style="opacity:1" fill="#5d656e" d="M 128.5,102.5 C 129.531,103.249 130.698,103.915 132,104.5C 132.173,110.348 132.673,116.015 133.5,121.5C 133.5,123.5 133.5,125.5 133.5,127.5C 133.5,127.833 133.5,128.167 133.5,128.5C 133.205,130.735 133.539,132.735 134.5,134.5C 132.129,136.997 131.129,139.997 131.5,143.5C 131.328,144.492 131.662,145.158 132.5,145.5C 132.567,146.959 132.234,148.292 131.5,149.5C 129.986,152.095 127.652,153.429 124.5,153.5C 123.662,153.842 123.328,154.508 123.5,155.5C 117.883,154.146 114.216,156.146 112.5,161.5C 112.167,161.5 111.833,161.5 111.5,161.5C 111.5,161.167 111.5,160.833 111.5,160.5C 111.104,157.956 111.771,155.789 113.5,154C 117.716,152.796 122.049,152.13 126.5,152C 128.333,151.5 129.5,150.333 130,148.5C 130.5,134.171 130.667,119.837 130.5,105.5C 129.602,104.842 128.602,104.176 127.5,103.5C 127.624,102.893 127.957,102.56 128.5,102.5 Z"/></g>
<g><path style="opacity:1" fill="#927537" d="M 143.5,133.5 C 145.913,134.68 146.913,136.68 146.5,139.5C 147.462,146.412 147.795,153.412 147.5,160.5C 143.09,160.323 142.423,161.657 145.5,164.5C 145.5,165.167 145.5,165.833 145.5,166.5C 142.593,164.685 141.259,162.019 141.5,158.5C 142.833,158.5 144.167,158.5 145.5,158.5C 145.95,150.039 145.284,141.706 143.5,133.5 Z"/></g>
<g><path style="opacity:1" fill="#e31133" d="M 73.5,142.5 C 73.8039,143.15 74.1373,143.817 74.5,144.5C 72.2573,145.474 69.924,145.808 67.5,145.5C 67.5,144.5 67.5,143.5 67.5,142.5C 69.5,142.5 71.5,142.5 73.5,142.5 Z"/></g>
<g><path style="opacity:1" fill="#aa3c44" d="M 75.5,135.5 C 76.1667,135.5 76.8333,135.5 77.5,135.5C 75.7713,140.297 74.7713,145.297 74.5,150.5C 74.5,150.833 74.5,151.167 74.5,151.5C 73.7387,150.609 72.7387,149.942 71.5,149.5C 70.2867,149.747 69.62,150.414 69.5,151.5C 68.596,150.791 68.2627,149.791 68.5,148.5C 69.9778,148.762 71.3112,148.429 72.5,147.5C 70.7086,146.83 69.0419,146.163 67.5,145.5C 69.924,145.808 72.2573,145.474 74.5,144.5C 74.1373,143.817 73.8039,143.15 73.5,142.5C 73.5,141.5 73.5,140.5 73.5,139.5C 74.6005,138.395 75.2671,137.062 75.5,135.5 Z"/></g>
<g><path style="opacity:1" fill="#f3ecca" d="M 132.5,145.5 C 138.146,148.169 137.813,149.502 131.5,149.5C 132.234,148.292 132.567,146.959 132.5,145.5 Z"/></g>
<g><path style="opacity:1" fill="#e5223a" d="M 83.5,147.5 C 82.4241,155.871 78.0908,158.205 70.5,154.5C 69.8902,153.609 69.5569,152.609 69.5,151.5C 69.62,150.414 70.2867,149.747 71.5,149.5C 72.7387,149.942 73.7387,150.609 74.5,151.5C 76.1992,151.66 77.8659,151.494 79.5,151C 80.1029,148.929 81.4362,147.762 83.5,147.5 Z"/></g>
<g><path style="opacity:1" fill="#695e5e" d="M 94.5,151.5 C 98.7847,152.208 103.118,152.708 107.5,153C 108.328,153.915 109.328,154.581 110.5,155C 109.956,155.717 109.289,156.217 108.5,156.5C 107.167,156.5 105.833,156.5 104.5,156.5C 104.5,155.5 104.5,154.5 104.5,153.5C 101.482,153.665 98.4816,153.498 95.5,153C 94.944,152.617 94.6107,152.117 94.5,151.5 Z"/></g>
<g><path style="opacity:1" fill="#be1b2e" d="M 94.5,151.5 C 94.6107,152.117 94.944,152.617 95.5,153C 98.4816,153.498 101.482,153.665 104.5,153.5C 104.5,154.5 104.5,155.5 104.5,156.5C 101.221,157.492 97.8881,157.659 94.5,157C 93.944,156.617 93.6107,156.117 93.5,155.5C 93.67,154.178 93.3366,153.011 92.5,152C 93.0944,151.536 93.7611,151.369 94.5,151.5 Z"/></g>
<g><path style="opacity:1" fill="#830f10" d="M 85.5,135.5 C 84.7628,138.238 84.7628,140.905 85.5,143.5C 84.9882,147.261 84.1549,150.928 83,154.5C 81.0143,156.742 78.5143,157.742 75.5,157.5C 72.6068,157.931 70.6068,156.931 69.5,154.5C 69.8333,154.5 70.1667,154.5 70.5,154.5C 78.0908,158.205 82.4241,155.871 83.5,147.5C 83.1788,145.952 82.1788,145.285 80.5,145.5C 80.5,144.5 80.5,143.5 80.5,142.5C 81.5,142.5 82.5,142.5 83.5,142.5C 82.1989,140.328 81.1989,137.995 80.5,135.5C 82.4752,135.178 84.1418,135.178 85.5,135.5 Z"/></g>
<g><path style="opacity:1" fill="#e8ebe3" d="M 124.5,153.5 C 126.475,155.362 126.808,157.362 125.5,159.5C 124.655,158.329 123.989,156.995 123.5,155.5C 123.328,154.508 123.662,153.842 124.5,153.5 Z"/></g>
<g><path style="opacity:1" fill="#caab48" d="M 110.5,160.5 C 110.833,160.5 111.167,160.5 111.5,160.5C 111.5,160.833 111.5,161.167 111.5,161.5C 111.5,176.5 111.5,191.5 111.5,206.5C 111.5,206.833 111.5,207.167 111.5,207.5C 110.5,207.167 109.833,206.5 109.5,205.5C 110.496,190.676 110.829,175.676 110.5,160.5 Z"/></g>
<g><path style="opacity:1" fill="#f4f3de" d="M 146.5,139.5 C 147.833,139.5 149.167,139.5 150.5,139.5C 149.03,141.159 148.363,143.159 148.5,145.5C 149.176,153.327 150.01,160.994 151,168.5C 150.586,168.957 150.086,169.291 149.5,169.5C 148.148,168.476 146.815,167.476 145.5,166.5C 145.5,165.833 145.5,165.167 145.5,164.5C 150.124,166.786 150.79,165.453 147.5,160.5C 147.795,153.412 147.462,146.412 146.5,139.5 Z"/></g>
<g><path style="opacity:1" fill="#0e5fc3" d="M 111.5,161.5 C 111.833,161.5 112.167,161.5 112.5,161.5C 111.85,176.206 112.517,190.539 114.5,204.5C 114.027,205.906 113.027,206.573 111.5,206.5C 111.5,191.5 111.5,176.5 111.5,161.5 Z"/></g>
<g><path style="opacity:1" fill="#f4c969" d="M 97.5,167.5 C 95.5,167.5 93.5,167.5 91.5,167.5C 91.5,169.167 91.5,170.833 91.5,172.5C 90.596,171.791 90.2627,170.791 90.5,169.5C 90.5,168.833 90.1667,168.5 89.5,168.5C 84.8333,167.167 80.1667,167.167 75.5,168.5C 74.9569,168.44 74.6236,168.107 74.5,167.5C 82.3235,166.18 89.9902,166.18 97.5,167.5 Z"/></g>
<g><path style="opacity:1" fill="#f3e7da" d="M 97.5,167.5 C 96.0813,168.451 94.4147,168.784 92.5,168.5C 92.0217,171.278 93.0217,173.278 95.5,174.5C 94.5853,175.328 93.9186,176.328 93.5,177.5C 94.2255,178.867 94.8921,180.2 95.5,181.5C 93.8656,182.207 92.5323,183.373 91.5,185C 89.7412,185.798 88.0745,185.631 86.5,184.5C 86.6236,183.893 86.9569,183.56 87.5,183.5C 88.8221,183.67 89.9887,183.337 91,182.5C 91.4983,179.183 91.665,175.85 91.5,172.5C 91.5,170.833 91.5,169.167 91.5,167.5C 93.5,167.5 95.5,167.5 97.5,167.5 Z"/></g>
<g><path style="opacity:1" fill="#e50527" d="M 78.5,169.5 C 81.5184,169.335 84.5184,169.502 87.5,170C 85.3475,172.165 82.6808,172.998 79.5,172.5C 79.4431,171.391 79.1098,170.391 78.5,169.5 Z"/></g>
<g><path style="opacity:1" fill="#9e2826" d="M 97.5,167.5 C 98.1386,168.097 98.472,168.93 98.5,170C 97.8074,174.81 97.3074,179.643 97,184.5C 93.3956,192.071 88.229,193.404 81.5,188.5C 81.8333,188.5 82.1667,188.5 82.5,188.5C 87.4427,190.43 91.6093,189.43 95,185.5C 95.49,184.207 95.6567,182.873 95.5,181.5C 94.8921,180.2 94.2255,178.867 93.5,177.5C 93.9186,176.328 94.5853,175.328 95.5,174.5C 93.0217,173.278 92.0217,171.278 92.5,168.5C 94.4147,168.784 96.0813,168.451 97.5,167.5 Z"/></g>
<g><path style="opacity:1" fill="#e9dad4" d="M 89.5,168.5 C 85.6286,168.185 81.9619,168.518 78.5,169.5C 79.1098,170.391 79.4431,171.391 79.5,172.5C 81.3691,173.165 83.3691,173.831 85.5,174.5C 83.3691,175.169 81.3691,175.835 79.5,176.5C 79.5,177.5 79.5,178.5 79.5,179.5C 81.5,179.5 83.5,179.5 85.5,179.5C 85.5,180.5 85.5,181.5 85.5,182.5C 84.1667,182.5 82.8333,182.5 81.5,182.5C 81.5172,184.565 81.8505,186.565 82.5,188.5C 82.1667,188.5 81.8333,188.5 81.5,188.5C 78.5592,183.521 77.3925,178.188 78,172.5C 76.9054,171.307 76.072,169.973 75.5,168.5C 80.1667,167.167 84.8333,167.167 89.5,168.5 Z"/></g>
<g><path style="opacity:1" fill="#eaaa14" d="M 90.5,169.5 C 90.2627,170.791 90.596,171.791 91.5,172.5C 91.665,175.85 91.4983,179.183 91,182.5C 89.9887,183.337 88.8221,183.67 87.5,183.5C 86.7659,182.292 86.4326,180.959 86.5,179.5C 87.4778,179.189 88.1445,178.522 88.5,177.5C 86.7706,174.127 87.4373,171.46 90.5,169.5 Z"/></g>
<g><path style="opacity:1" fill="#967931" d="M 160.5,139.5 C 160.079,144.305 159.079,148.972 157.5,153.5C 158.562,156.103 158.728,158.77 158,161.5C 154.67,166.809 152.503,172.476 151.5,178.5C 151.5,178.833 151.5,179.167 151.5,179.5C 149.974,178.508 149.307,177.008 149.5,175C 151.476,171.014 153.476,167.014 155.5,163C 156.287,160.901 156.62,158.734 156.5,156.5C 154.833,156.5 153.167,156.5 151.5,156.5C 151.051,154.023 151.717,152.023 153.5,150.5C 154.281,151.729 154.781,153.062 155,154.5C 158.077,150.369 159.244,145.702 158.5,140.5C 159.167,140.167 159.833,139.833 160.5,139.5 Z"/></g>
<g><path style="opacity:1" fill="#a74046" d="M 78.5,169.5 C 81.9619,168.518 85.6286,168.185 89.5,168.5C 90.1667,168.5 90.5,168.833 90.5,169.5C 87.4373,171.46 86.7706,174.127 88.5,177.5C 88.1445,178.522 87.4778,179.189 86.5,179.5C 86.5,178.5 86.5,177.5 86.5,176.5C 84.1667,176.5 81.8333,176.5 79.5,176.5C 81.3691,175.835 83.3691,175.169 85.5,174.5C 83.3691,173.831 81.3691,173.165 79.5,172.5C 82.6808,172.998 85.3475,172.165 87.5,170C 84.5184,169.502 81.5184,169.335 78.5,169.5 Z"/></g>
<g><path style="opacity:1" fill="#df1332" d="M 79.5,176.5 C 81.8333,176.5 84.1667,176.5 86.5,176.5C 86.5,177.5 86.5,178.5 86.5,179.5C 86.4326,180.959 86.7659,182.292 87.5,183.5C 86.9569,183.56 86.6236,183.893 86.5,184.5C 88.0745,185.631 89.7412,185.798 91.5,185C 92.5323,183.373 93.8656,182.207 95.5,181.5C 95.6567,182.873 95.49,184.207 95,185.5C 91.6093,189.43 87.4427,190.43 82.5,188.5C 81.8505,186.565 81.5172,184.565 81.5,182.5C 82.8333,182.5 84.1667,182.5 85.5,182.5C 85.5,181.5 85.5,180.5 85.5,179.5C 83.5,179.5 81.5,179.5 79.5,179.5C 79.5,178.5 79.5,177.5 79.5,176.5 Z"/></g>
<g><path style="opacity:1" fill="#0c60ea" d="M 133.5,128.5 C 144.167,128.5 154.833,128.5 165.5,128.5C 165.77,147.856 165.437,167.19 164.5,186.5C 162.552,191.447 159.219,195.114 154.5,197.5C 144.828,197.334 135.161,197.5 125.5,198C 121.476,199.674 117.809,201.841 114.5,204.5C 112.517,190.539 111.85,176.206 112.5,161.5C 114.216,156.146 117.883,154.146 123.5,155.5C 123.989,156.995 124.655,158.329 125.5,159.5C 125.5,160.167 125.833,160.5 126.5,160.5C 126.44,161.043 126.107,161.376 125.5,161.5C 124.008,159.834 122.175,158.834 120,158.5C 118.301,158.387 117.134,159.053 116.5,160.5C 118.544,164.544 121.544,167.544 125.5,169.5C 125.443,170.609 125.11,171.609 124.5,172.5C 123.515,176.634 123.182,180.968 123.5,185.5C 121.143,185.337 118.81,185.503 116.5,186C 114.447,187.678 114.113,189.511 115.5,191.5C 121.341,191.855 127.008,191.188 132.5,189.5C 132.335,185.818 132.501,182.152 133,178.5C 133.383,177.944 133.883,177.611 134.5,177.5C 135.5,177.5 136.5,177.5 137.5,177.5C 137.088,179.973 138.088,181.306 140.5,181.5C 140.5,181.833 140.5,182.167 140.5,182.5C 143.689,183.166 147.023,183.833 150.5,184.5C 148.234,185.314 145.9,185.814 143.5,186C 142.62,187.356 142.286,188.856 142.5,190.5C 144.473,191.163 146.639,191.496 149,191.5C 152.738,191.619 156.238,190.953 159.5,189.5C 159.806,186.615 159.473,183.948 158.5,181.5C 156.68,179.552 154.346,178.552 151.5,178.5C 152.503,172.476 154.67,166.809 158,161.5C 158.728,158.77 158.562,156.103 157.5,153.5C 159.079,148.972 160.079,144.305 160.5,139.5C 157.974,138.343 155.307,138.343 152.5,139.5C 151.833,139.5 151.167,139.5 150.5,139.5C 149.167,139.5 147.833,139.5 146.5,139.5C 146.913,136.68 145.913,134.68 143.5,133.5C 140.661,131.213 137.995,131.546 135.5,134.5C 135.167,134.5 134.833,134.5 134.5,134.5C 133.539,132.735 133.205,130.735 133.5,128.5 Z"/></g>
<g><path style="opacity:1" fill="#d0cebe" d="M 140.5,182.5 C 144.5,182.5 148.5,182.5 152.5,182.5C 152.5,183.833 152.5,185.167 152.5,186.5C 149.813,186.336 147.146,186.503 144.5,187C 143.748,187.671 143.414,188.504 143.5,189.5C 143.5,190.167 143.167,190.5 142.5,190.5C 142.286,188.856 142.62,187.356 143.5,186C 145.9,185.814 148.234,185.314 150.5,184.5C 147.023,183.833 143.689,183.166 140.5,182.5 Z"/></g>
<g><path style="opacity:1" fill="#ccddf3" d="M 124.5,172.5 C 124.5,177.167 124.5,181.833 124.5,186.5C 122.143,186.337 119.81,186.503 117.5,187C 116.748,187.671 116.414,188.504 116.5,189.5C 116.167,190.167 115.833,190.833 115.5,191.5C 114.113,189.511 114.447,187.678 116.5,186C 118.81,185.503 121.143,185.337 123.5,185.5C 123.182,180.968 123.515,176.634 124.5,172.5 Z"/></g>
<g><path style="opacity:1" fill="#e1ecef" d="M 151.5,178.5 C 154.346,178.552 156.68,179.552 158.5,181.5C 155.933,181.279 153.599,180.612 151.5,179.5C 151.5,179.167 151.5,178.833 151.5,178.5 Z"/></g>
<g><path style="opacity:1" fill="#d0d6cb" d="M 138.5,175.5 C 139.458,177.302 140.125,179.302 140.5,181.5C 138.088,181.306 137.088,179.973 137.5,177.5C 136.5,177.5 135.5,177.5 134.5,177.5C 135.671,176.655 137.005,175.989 138.5,175.5 Z"/></g>
<g><path style="opacity:1" fill="#8d6d22" d="M 138.5,175.5 C 137.005,175.989 135.671,176.655 134.5,177.5C 133.883,177.611 133.383,177.944 133,178.5C 132.501,182.152 132.335,185.818 132.5,189.5C 127.008,191.188 121.341,191.855 115.5,191.5C 115.833,190.833 116.167,190.167 116.5,189.5C 119.943,188.278 123.443,188.278 127,189.5C 128.3,188.293 129.8,187.626 131.5,187.5C 131.335,184.15 131.502,180.817 132,177.5C 134.01,175.432 136.177,174.766 138.5,175.5 Z"/></g>
<g><path style="opacity:1" fill="#eff0dc" d="M 135.5,167.5 C 135.918,168.222 136.584,168.722 137.5,169C 133.63,169.105 129.963,169.938 126.5,171.5C 125.879,176.632 125.213,181.632 124.5,186.5C 124.5,181.833 124.5,177.167 124.5,172.5C 125.11,171.609 125.443,170.609 125.5,169.5C 127.855,168.906 130.022,167.906 132,166.5C 133.138,166.989 134.305,167.322 135.5,167.5 Z"/></g>
<g><path style="opacity:1" fill="#215ae0" d="M 147.5,160.5 C 150.79,165.453 150.124,166.786 145.5,164.5C 142.423,161.657 143.09,160.323 147.5,160.5 Z"/></g>
<g><path style="opacity:1" fill="#8e6f24" d="M 116.5,160.5 C 117.833,160.5 119.167,160.5 120.5,160.5C 122.459,167.332 126.126,168.665 131.5,164.5C 133.261,165.035 134.594,166.035 135.5,167.5C 134.305,167.322 133.138,166.989 132,166.5C 130.022,167.906 127.855,168.906 125.5,169.5C 121.544,167.544 118.544,164.544 116.5,160.5 Z"/></g>
<g><path style="opacity:1" fill="#f1edd3" d="M 126.5,160.5 C 127.423,159.697 128.423,159.53 129.5,160C 128.902,162.048 127.569,163.215 125.5,163.5C 123.816,162.473 122.149,161.473 120.5,160.5C 119.167,160.5 117.833,160.5 116.5,160.5C 117.134,159.053 118.301,158.387 120,158.5C 122.175,158.834 124.008,159.834 125.5,161.5C 126.107,161.376 126.44,161.043 126.5,160.5 Z"/></g>
<g><path style="opacity:1" fill="#8f7022" d="M 158.5,181.5 C 159.473,183.948 159.806,186.615 159.5,189.5C 156.238,190.953 152.738,191.619 149,191.5C 146.639,191.496 144.473,191.163 142.5,190.5C 143.167,190.5 143.5,190.167 143.5,189.5C 146.779,188.73 150.279,188.73 154,189.5C 155.3,188.293 156.8,187.626 158.5,187.5C 158.5,185.5 158.5,183.5 158.5,181.5 Z"/></g>
<g><path style="opacity:1" fill="#977023" d="M 61.5,192.5 C 63.4649,194.488 65.7982,195.988 68.5,197C 78.1667,197.333 87.8333,197.667 97.5,198C 100.131,199.327 102.798,200.66 105.5,202C 106.381,202.708 107.047,203.542 107.5,204.5C 104.298,202.822 100.965,201.322 97.5,200C 87.4412,199.896 77.4412,199.229 67.5,198C 64.3589,197.285 62.3589,195.452 61.5,192.5 Z"/></g>
<g><path style="opacity:1" fill="#242b63" d="M 154.5,197.5 C 153.737,198.268 152.737,198.768 151.5,199C 142.5,199.333 133.5,199.667 124.5,200C 118.728,202.106 114.562,205.939 112,211.5C 111.51,210.207 111.343,208.873 111.5,207.5C 111.5,207.167 111.5,206.833 111.5,206.5C 113.027,206.573 114.027,205.906 114.5,204.5C 117.809,201.841 121.476,199.674 125.5,198C 135.161,197.5 144.828,197.334 154.5,197.5 Z"/></g>
</svg>